<?xml version="1.0" standalone="no"?>
<!DOCTYPE svg PUBLIC "-//W3C//DTD SVG 20010904//EN"
 "http://www.w3.org/TR/2001/REC-SVG-20010904/DTD/svg10.dtd">
<svg version="1.0" xmlns="http://www.w3.org/2000/svg"
 width="1024.000000pt" height="1024.000000pt" viewBox="0 0 1024.000000 1024.000000"
 preserveAspectRatio="xMidYMid meet">
<metadata>
Created by potrace 1.14, written by Peter Selinger 2001-2017
</metadata>
<g transform="translate(0.000000,1024.000000) scale(0.100000,-0.100000)"
fill="#000000" stroke="none">
<path d="M2215 10230 c-128 -16 -171 -21 -185 -25 -8 -2 -31 -7 -50 -10 -151
-25 -409 -111 -577 -191 -104 -50 -312 -168 -323 -184 -3 -4 -15 -12 -27 -19
-13 -6 -69 -48 -125 -93 -436 -346 -747 -841 -868 -1381 -11 -48 -22 -102 -25
-120 -3 -18 -10 -59 -17 -92 -14 -71 -22 -5758 -8 -5885 13 -124 21 -184 25
-200 2 -8 7 -31 10 -50 29 -172 112 -414 210 -615 234 -477 635 -877 1117
-1113 204 -100 479 -190 668 -217 24 -4 47 -8 50 -10 3 -2 44 -7 90 -12 107
-10 5770 -11 5865 0 398 43 772 179 1105 402 220 148 415 328 560 515 19 25
37 47 41 50 10 8 128 187 160 243 131 228 249 543 284 760 3 17 8 46 12 62 30
150 31 231 31 3075 0 2310 -3 2866 -14 2955 -54 452 -237 886 -522 1245 -163
205 -411 424 -632 559 -238 145 -545 266 -806 316 -220 42 -39 39 -3104 41
-1587 1 -2912 -2 -2945 -6z"/>
</g>
</svg>
